<svg width="100" height="101" viewBox="0 0 100 101" fill="none" xmlns="http://www.w3.org/2000/svg">
<g clip-path="url(#clip0)">
<path d="M99.9707 0.283447H0.0292969C0.0131167 0.283447 0 0.296564 0 0.312744V100.254C0 100.27 0.0131167 100.283 0.0292969 100.283H99.9707C99.9869 100.283 100 100.27 100 100.254V0.312744C100 0.296564 99.9869 0.283447 99.9707 0.283447Z" fill="white"/>
<path d="M86.0937 46.9436L53.3203 14.1897C52.8721 13.7397 52.3394 13.3826 51.7529 13.139C51.1663 12.8954 50.5375 12.77 49.9023 12.77C49.2672 12.77 48.6383 12.8954 48.0518 13.139C47.4652 13.3826 46.9326 13.7397 46.4844 14.1897L39.6875 21.0061L48.3203 29.6194C49.3385 29.2746 50.433 29.2225 51.4793 29.4691C52.5256 29.7157 53.4817 30.251 54.2387 31.0142C54.9958 31.7773 55.5234 32.7377 55.7616 33.7859C55.9997 34.8342 55.9389 35.9282 55.5859 36.9436L63.8867 45.2444C65.128 44.8163 66.4785 44.8265 67.7132 45.2733C68.9478 45.7202 69.9921 46.5767 70.6718 47.7001C71.3515 48.8235 71.6257 50.1459 71.4487 51.447C71.2717 52.748 70.6541 53.9491 69.6989 54.85C68.7437 55.751 67.5086 56.2973 66.1994 56.398C64.8902 56.4988 63.5861 56.1478 62.5043 55.4035C61.4226 54.6593 60.6285 53.5668 60.2546 52.3082C59.8806 51.0495 59.9493 49.7007 60.4492 48.4866L52.6953 40.7327V61.1428C53.8707 61.7276 54.8102 62.6975 55.3573 63.8908C55.9045 65.0842 56.0261 66.4291 55.7021 67.7013C55.378 68.9735 54.6278 70.0962 53.5765 70.8824C52.5251 71.6687 51.2361 72.0709 49.9242 72.0221C48.6122 71.9733 47.3567 71.4765 46.3666 70.6143C45.3765 69.7522 44.7118 68.5768 44.4831 67.284C44.2545 65.9913 44.4757 64.6592 45.1099 63.5097C45.7442 62.3603 46.7532 61.4629 47.9687 60.967V40.3811C47.2661 40.0943 46.6273 39.6712 46.0892 39.136C45.5511 38.6009 45.1244 37.9644 44.8338 37.2633C44.5432 36.5623 44.3945 35.8106 44.3962 35.0517C44.3979 34.2928 44.55 33.5418 44.8437 32.842L36.3477 24.3459L13.8867 46.8069C12.9838 47.7113 12.4768 48.9371 12.4768 50.2151C12.4768 51.493 12.9838 52.7188 13.8867 53.6233L46.6797 86.3772C47.1279 86.8272 47.6606 87.1842 48.2471 87.4279C48.8336 87.6715 49.4625 87.7969 50.0977 87.7969C50.7328 87.7969 51.3617 87.6715 51.9482 87.4279C52.5347 87.1842 53.0674 86.8272 53.5156 86.3772L86.1133 53.76C87.0161 52.8555 87.5232 51.6298 87.5232 50.3518C87.5232 49.0738 87.0161 47.8481 86.1133 46.9436" fill="#F05133"/>
</g>
<defs>
<clipPath id="clip0">
<rect width="100" height="100" fill="white" transform="translate(0 0.283447)"/>
</clipPath>
</defs>
</svg>
