<svg width="100" height="101" viewBox="0 0 100 101" fill="none" xmlns="http://www.w3.org/2000/svg">
<path d="M96.2249 46.0061L54.2523 4.05852C53.6783 3.48222 52.9961 3.02495 52.2449 2.71293C51.4937 2.40091 50.6883 2.2403 49.8749 2.2403C49.0615 2.2403 48.2561 2.40091 47.505 2.71293C46.7538 3.02495 46.0716 3.48222 45.4976 4.05852L36.7929 12.7882L47.8488 23.8192C49.1528 23.3776 50.5545 23.3109 51.8945 23.6267C53.2345 23.9425 54.4589 24.6281 55.4285 25.6055C56.3981 26.5829 57.0738 27.8128 57.3788 29.1552C57.6838 30.4977 57.6059 31.8989 57.1539 33.1992L67.7846 43.83C69.3743 43.2817 71.1039 43.2948 72.6851 43.8671C74.2663 44.4394 75.6036 45.5363 76.4742 46.975C77.3447 48.4137 77.6959 50.1074 77.4691 51.7736C77.2424 53.4398 76.4515 54.9781 75.2282 56.1319C74.0049 57.2857 72.4231 57.9854 70.7464 58.1144C69.0698 58.2433 67.3996 57.7938 66.0142 56.8407C64.6288 55.8876 63.6119 54.4885 63.1329 52.8765C62.654 51.2646 62.742 49.5372 63.3822 47.9822L53.4519 38.0519V64.1909C54.9572 64.9399 56.1604 66.182 56.8611 67.7103C57.5618 69.2387 57.7176 70.961 57.3026 72.5903C56.8876 74.2196 55.9268 75.6575 54.5803 76.6644C53.2339 77.6713 51.583 78.1864 49.9029 78.124C48.2227 78.0615 46.6147 77.4251 45.3467 76.321C44.0788 75.2169 43.2275 73.7116 42.9346 72.056C42.6418 70.4003 42.9251 68.6944 43.7374 67.2223C44.5496 65.7502 45.8418 64.6009 47.3986 63.9658V37.6016C46.4987 37.2344 45.6806 36.6924 44.9915 36.0071C44.3023 35.3217 43.7559 34.5066 43.3837 33.6087C43.0116 32.7109 42.8211 31.7482 42.8233 30.7763C42.8254 29.8044 43.0203 28.8426 43.3964 27.9464L32.5156 17.0655L3.75007 45.831C2.59378 46.9894 1.94436 48.5592 1.94436 50.1959C1.94436 51.8326 2.59378 53.4024 3.75007 54.5608L45.7477 96.5084C46.3217 97.0847 47.0039 97.5419 47.7551 97.854C48.5063 98.166 49.3117 98.3266 50.1251 98.3266C50.9385 98.3266 51.7439 98.166 52.4951 97.854C53.2462 97.5419 53.9284 97.0847 54.5024 96.5084L96.2499 54.7358C97.4062 53.5775 98.0556 52.0077 98.0556 50.371C98.0556 48.7343 97.4062 47.1645 96.2499 46.0061" fill="#F05133"/>
</svg>
