<svg width="30" height="31" viewBox="0 0 30 31" fill="none" xmlns="http://www.w3.org/2000/svg">
<circle cx="15" cy="15.6487" r="15" fill="#161B22"/>
<path d="M15.0001 0.648712C6.71687 0.648712 0 7.5343 0 16.0285C0 22.8237 4.29799 28.5886 10.258 30.6223C11.0077 30.7646 11.2829 30.2886 11.2829 29.8824C11.2829 29.5157 11.269 28.3042 11.2625 27.019C7.08946 27.9494 6.2089 25.2044 6.2089 25.2044C5.52656 23.4267 4.54341 22.954 4.54341 22.954C3.18245 21.9995 4.64599 22.0191 4.64599 22.0191C6.15227 22.1276 6.94539 23.604 6.94539 23.604C8.28325 25.9552 10.4545 25.2755 11.3105 24.8825C11.4451 23.8885 11.8338 23.21 12.2628 22.8259C8.93107 22.437 5.42869 21.1183 5.42869 15.2252C5.42869 13.5461 6.01466 12.1741 6.97421 11.0971C6.81846 10.7097 6.30503 9.14542 7.11952 7.02698C7.11952 7.02698 8.37913 6.61363 11.2456 8.60346C12.4421 8.2627 13.7254 8.0918 15.0001 8.08595C16.2749 8.0918 17.5591 8.2627 18.7579 8.60346C21.6209 6.61363 22.8787 7.02698 22.8787 7.02698C23.6952 9.14542 23.1815 10.7097 23.0258 11.0971C23.9876 12.1741 24.5696 13.5461 24.5696 15.2252C24.5696 21.1323 21.0605 22.433 17.7203 22.8137C18.2583 23.291 18.7377 24.2269 18.7377 25.6618C18.7377 27.7197 18.7203 29.3759 18.7203 29.8824C18.7203 30.2917 18.9904 30.7713 19.7507 30.6202C25.7075 28.5843 30 22.8214 30 16.0285C30 7.5343 23.2841 0.648712 15.0001 0.648712Z" fill="white"/>
<path d="M5.72553 22.6252C5.69255 22.7008 5.57553 22.7235 5.46892 22.6716C5.36032 22.6219 5.29933 22.5187 5.33454 22.4428C5.36677 22.3649 5.48404 22.3432 5.59239 22.3954C5.70123 22.4451 5.76322 22.5493 5.72553 22.6252Z" fill="#161514"/>
<path d="M6.332 23.3131C6.26059 23.3804 6.121 23.3491 6.02629 23.2427C5.92836 23.1366 5.91001 22.9946 5.98241 22.9263C6.05605 22.8589 6.19142 22.8904 6.2896 22.9966C6.38753 23.104 6.40662 23.245 6.332 23.3131Z" fill="#161514"/>
<path d="M6.92231 24.1901C6.83057 24.2549 6.68057 24.1942 6.58784 24.0588C6.49611 23.9233 6.49611 23.7609 6.58983 23.6959C6.6828 23.6308 6.83057 23.6893 6.92454 23.8237C7.01602 23.9614 7.01602 24.1238 6.92231 24.1901Z" fill="#161514"/>
<path d="M7.73107 25.0374C7.649 25.1295 7.47421 25.1048 7.34628 24.9792C7.21537 24.8564 7.17892 24.6821 7.26124 24.5901C7.34429 24.4978 7.52008 24.5237 7.649 24.6483C7.77892 24.7709 7.81859 24.9464 7.73107 25.0374Z" fill="#161514"/>
<path d="M8.84678 25.5294C8.81058 25.6487 8.64223 25.7029 8.47264 25.6522C8.3033 25.6 8.19248 25.4603 8.22669 25.3398C8.2619 25.2197 8.43099 25.1633 8.60182 25.2175C8.77091 25.2694 8.88198 25.4081 8.84678 25.5294Z" fill="#161514"/>
<path d="M10.0721 25.6207C10.0763 25.7463 9.93248 25.8504 9.75447 25.8527C9.57546 25.8567 9.43066 25.7551 9.42868 25.6315C9.42868 25.5047 9.56926 25.4016 9.74827 25.3985C9.92628 25.395 10.0721 25.4959 10.0721 25.6207Z" fill="#161514"/>
<path d="M11.2123 25.4232C11.2336 25.5458 11.1099 25.6716 10.9331 25.7052C10.7593 25.7374 10.5984 25.6618 10.5764 25.5402C10.5548 25.4147 10.6807 25.2888 10.8543 25.2563C11.0313 25.225 11.1897 25.2987 11.2123 25.4232Z" fill="#161514"/>
</svg>
