<svg width="101" height="100" viewBox="0 0 101 100" fill="none" xmlns="http://www.w3.org/2000/svg">
<path d="M94.2115 49.1883C94.2115 44.0526 89.6092 39.8894 83.9318 39.8894C83.5666 39.8894 83.2064 39.907 82.8514 39.9406L96.9705 2.271H36.9689L51.0681 39.9081C50.8615 39.8968 50.6537 39.8894 50.4435 39.8894C44.7662 39.8894 40.1639 44.0526 40.1639 49.1883C40.1639 53.3396 43.1713 56.854 47.3224 58.0498C45.1299 61.4851 42.3713 64.5791 39.2392 67.2519C34.9803 70.8865 30.106 73.6424 24.8346 75.3406C18.558 72.424 15.5939 65.9371 18.2685 60.2498C18.5705 59.6077 18.8787 58.9565 19.1736 58.3085C23.7205 57.3484 27.1088 53.6607 27.1088 49.2551C27.1088 44.1194 22.5064 39.9562 16.8291 39.9562C11.1514 39.9562 6.54901 44.1194 6.54901 49.2551C6.54901 52.4046 8.28143 55.1858 10.9291 56.8682C8.38456 62.1088 4.64471 67.5929 3.47948 73.9491C2.08299 81.5671 3.47518 89.6533 10.7584 94.2198C27.7209 104.854 46.1334 87.6272 65.5471 83.2964C72.5826 81.7268 80.3056 81.9798 86.5045 78.7321C91.1596 76.2933 94.2283 72.2516 95.0994 67.7138C95.9596 63.2311 94.7053 58.7678 91.8209 55.1487C93.3127 53.5346 94.2115 51.4569 94.2115 49.1883ZM60.7224 49.2212C60.7224 49.2102 60.7236 49.1993 60.7236 49.1883C60.7236 45.8159 58.7385 42.8625 55.7681 41.2325L66.99 20.7056L78.2314 41.4501C75.4709 43.1173 73.6517 45.9604 73.6517 49.1883C73.6517 49.2562 73.656 49.3229 73.6576 49.3904L60.7224 49.2212Z" fill="#C63D14"/>
<path d="M96.7218 49.1883C96.7218 43.5399 92.223 38.8269 86.2969 37.8201L100.472 0H33.4668L47.6637 37.8968C41.9437 39.0484 37.6531 43.6724 37.6531 49.1883C37.6531 53.3307 40.073 56.9693 43.7 59.0138C41.9554 61.3647 39.8867 63.577 37.516 65.6C33.7566 68.8085 29.5679 71.2417 25.0523 72.8424C20.5043 70.2579 18.5816 65.3845 20.5785 61.1385L20.7347 60.8064C20.8324 60.5986 20.9304 60.3901 21.0281 60.1816C26.0234 58.606 29.6191 54.3046 29.6191 49.2551C29.6191 42.8753 23.8812 37.6852 16.8285 37.6852C9.77576 37.6852 4.03826 42.8753 4.03826 49.2551C4.03826 52.4753 5.50115 55.3912 7.85584 57.4908C7.42888 58.3141 6.98006 59.1509 6.51873 60.0081C4.3656 64.0085 1.92537 68.5428 1.00232 73.5777C-0.830882 83.5774 2.12576 91.571 9.32771 96.0862C13.698 98.8261 18.1359 99.9039 22.6019 99.9035C31.0117 99.9032 39.5183 96.0816 47.8386 92.3431C53.8312 89.6509 60.0273 86.8668 66.148 85.5014C68.4254 84.9933 70.7687 84.6876 73.2496 84.364C78.1691 83.7219 83.2566 83.0583 87.7629 80.6975C92.9859 77.9608 96.5617 73.37 97.5726 68.1025C98.4406 63.5806 97.3957 59.0519 94.848 55.2109C96.0359 53.4555 96.7218 51.3933 96.7218 49.1883ZM91.7008 49.1883C91.7008 53.0636 88.2156 56.2166 83.9312 56.2166C79.6476 56.2166 76.1621 53.0636 76.1621 49.1883C76.1621 45.3131 79.6476 42.1604 83.9312 42.1604C88.2156 42.1604 91.7008 45.3131 91.7008 49.1883ZM93.4679 4.54205L80.9504 37.9389C80.4078 38.0565 79.8789 38.2049 79.3652 38.3834L66.9996 15.5643L54.598 38.2484C54.0621 38.0813 53.5105 37.9438 52.9449 37.842L40.4703 4.54205H93.4679ZM50.4433 42.1604C54.7273 42.1604 58.2125 45.3131 58.2125 49.1883C58.2125 53.0636 54.7273 56.2166 50.4433 56.2166C46.1597 56.2166 42.6742 53.0636 42.6742 49.1883C42.6742 45.3131 46.1597 42.1604 50.4433 42.1604ZM16.8285 42.2272C21.1129 42.2272 24.598 45.3799 24.598 49.2551C24.598 53.1304 21.1129 56.2834 16.8285 56.2834C12.5449 56.2834 9.05935 53.1304 9.05935 49.2551C9.05935 45.3799 12.5449 42.2272 16.8285 42.2272ZM92.6254 67.3254C91.8695 71.2647 89.1797 74.706 85.2461 76.7668C81.5793 78.688 77.1851 79.2615 72.5328 79.8682C70.0406 80.1933 67.4633 80.5297 64.9457 81.0915C58.2886 82.5763 51.8406 85.4735 45.6051 88.2753C33.1265 93.882 22.3496 98.7237 12.1883 92.353C4.7449 87.6866 5.08865 79.0523 5.95584 74.3208C6.75935 69.9375 8.93201 65.9004 11.0332 61.9961C11.3969 61.3205 11.75 60.6586 12.0965 60.0011C13.1386 60.3781 14.2469 60.635 15.4019 60.7516C13.2633 67.1371 16.6269 74.0799 23.6867 77.3608L24.6527 77.8099L25.6761 77.4802C31.2574 75.6823 36.4 72.7968 40.9617 68.9039C43.9105 66.3876 46.4445 63.6035 48.5281 60.6286C49.1531 60.7138 49.7926 60.7587 50.4433 60.7587C57.4961 60.7587 63.234 55.5686 63.234 49.1883C63.234 45.7572 61.5726 42.6717 58.9414 40.5509L66.9797 25.847L75.0996 40.8311C72.6633 42.9392 71.141 45.9049 71.141 49.1883C71.141 55.5686 76.8785 60.7587 83.9312 60.7587C86.641 60.7587 89.1547 59.9905 91.225 58.6852C92.6625 61.347 93.198 64.342 92.6254 67.3254Z" fill="white"/>
</svg>
