<svg width="100" height="100" viewBox="0 0 100 100" fill="none" xmlns="http://www.w3.org/2000/svg">
<rect x="20.3388" y="24.6623" width="75.2719" height="71.57" fill="#020202"/>
<path d="M100 99.9999H0V-0.00012207H100V99.9999ZM33.8889 79.0665L26.2889 83.7554C27.4733 86.355 29.3931 88.5509 31.8111 90.0721C34.438 91.5775 37.4228 92.3453 40.45 92.2943C42.0379 92.2833 43.6197 92.097 45.1667 91.7388C48.4034 90.9424 51.1474 88.8046 52.7111 85.861C54.2694 82.1943 54.8439 78.1844 54.3778 74.2277C54.3778 73.4721 54.3778 72.6999 54.3778 71.9221C54.4056 66.2165 54.3778 60.411 54.3778 54.7888C54.3778 51.9221 54.3778 49.0499 54.3778 46.1721V45.9388H45C45 49.9721 45 53.9962 45 58.011C45 62.0499 45 66.0832 45 70.1277C45 71.161 45 72.1721 45 73.1443C45.2789 75.9172 45.0778 78.7175 44.4056 81.4221C43.5985 82.9796 41.9378 83.903 40.1889 83.7665C39.4055 83.7643 38.6267 83.6464 37.8778 83.4165C36.3732 82.6299 35.1602 81.3818 34.4167 79.8554L34.2333 79.5443C34.0611 79.2499 33.9444 79.0443 33.8889 79.0443V79.0665ZM66.9389 77.9554L59.3111 82.3277C59.9356 83.6941 60.7971 84.9392 61.8556 86.0054C62.1167 86.2943 62.4111 86.6054 62.6833 86.9499C66.4133 90.2857 71.2879 92.0512 76.2889 91.8777C82.7606 92.5154 88.8748 88.7993 91.2889 82.761V82.7165C91.9212 80.4971 92.0221 78.16 91.5833 75.8943L91.7722 76.1665C90.95 71.0054 87.2111 67.4221 79.2611 64.1943C78.6444 63.9054 78.0056 63.6388 77.3833 63.361C74.9111 62.2943 72.5778 61.2943 71.7667 59.4721C71.4053 58.5347 71.3393 57.5092 71.5778 56.5332C72.153 54.5783 74.0393 53.3107 76.0667 53.5165C76.6856 53.5166 77.3013 53.6064 77.8944 53.7832C79.7227 54.3992 81.2018 55.7652 81.9611 57.5388C86.2667 54.7221 86.2667 54.7221 89.2722 52.8499C88.5846 51.6762 87.7664 50.5841 86.8333 49.5943C83.9815 46.5372 79.8897 44.9496 75.7222 45.2832H75.0556L72.1222 45.6554C69.3674 46.2737 66.875 47.7384 64.9944 49.8443C62.7837 52.609 61.7882 56.1517 62.2352 59.6633C62.6823 63.1748 64.5338 66.3551 67.3667 68.4777C69.7999 70.1429 72.4242 71.5101 75.1833 72.5499C78.7444 74.0499 81.8167 75.3277 82.4389 77.6665C82.8154 79.0211 82.538 80.4738 81.6889 81.5943C80.1808 83.0835 78.0947 83.8351 75.9833 83.6499C75.402 83.6481 74.8213 83.611 74.2444 83.5388C71.1026 82.8347 68.428 80.7876 66.9278 77.9388L66.9389 77.9554Z" fill="#FFF50D"/>
</svg>
