<svg width="116" height="101" viewBox="0 0 116 101" fill="none" xmlns="http://www.w3.org/2000/svg">
<path d="M106.281 50.2935C106.281 43.7836 98.2138 37.6142 85.8461 33.7883C88.7002 21.0489 87.4317 10.9134 81.8424 7.66847C80.5541 6.90731 79.0478 6.54676 77.4027 6.54676V11.0136C78.3144 11.0136 79.0478 11.1939 79.6622 11.5344C82.3577 13.0968 83.5271 19.0458 82.6154 26.6975C82.3974 28.5804 82.0406 30.5634 81.6046 32.5865C77.7198 31.625 73.4783 30.8839 69.0188 30.4032C66.3431 26.6975 63.5683 23.3324 60.7737 20.3879C67.235 14.3186 73.3 10.9935 77.4225 10.9935V6.52673C71.972 6.52673 64.8368 10.4527 57.6223 17.2631C50.4078 10.4928 43.2725 6.60686 37.822 6.60686V11.0737C41.9248 11.0737 48.0095 14.3787 54.4709 20.4079C51.6961 23.3524 48.9213 26.6975 46.2852 30.4032C41.8059 30.8839 37.5644 31.625 33.6796 32.6065C33.2238 30.6035 32.8868 28.6605 32.649 26.7977C31.7174 19.146 32.867 13.1969 35.5427 11.6145C36.1373 11.2539 36.9103 11.0937 37.822 11.0937V6.62689C36.1571 6.62689 34.6508 6.98744 33.3427 7.7486C27.7732 10.9935 26.5246 21.109 29.3985 33.8084C17.0704 37.6542 9.04327 43.8036 9.04327 50.2935C9.04327 56.8034 17.11 62.9729 29.4778 66.7987C26.6237 79.5381 27.8922 89.6736 33.4814 92.9186C34.7697 93.6797 36.2761 94.0403 37.9409 94.0403C43.3915 94.0403 50.5267 90.1143 57.7412 83.3039C64.9557 90.0742 72.0909 93.9601 77.5415 93.9601C79.2063 93.9601 80.7127 93.5996 82.0208 92.8384C87.5902 89.5935 88.8389 79.478 85.965 66.7787C98.2534 62.9528 106.281 56.7834 106.281 50.2935ZM80.4748 36.9331C79.7415 39.5171 78.8298 42.1811 77.7991 44.8452C76.9865 43.2428 76.1342 41.6403 75.2027 40.0379C74.291 38.4354 73.3198 36.873 72.3486 35.3507C75.163 35.7714 77.8784 36.2922 80.4748 36.9331ZM71.3972 58.2657C69.8513 60.9698 68.2657 63.5337 66.6206 65.9174C63.6674 66.1778 60.6746 66.318 57.6619 66.318C54.6691 66.318 51.6763 66.1778 48.7429 65.9374C47.0978 63.5537 45.4924 61.0099 43.9464 58.3258C42.4401 55.7018 41.0725 53.0377 39.8239 50.3536C41.0527 47.6695 42.4401 44.9854 43.9266 42.3614C45.4726 39.6573 47.0582 37.0934 48.7032 34.7097C51.6564 34.4493 54.6493 34.3091 57.6619 34.3091C60.6548 34.3091 63.6476 34.4493 66.5809 34.6897C68.226 37.0733 69.8314 39.6172 71.3774 42.3013C72.8837 44.9253 74.2513 47.5894 75.5 50.2735C74.2513 52.9576 72.8837 55.6417 71.3972 58.2657ZM77.7991 55.6617C78.8694 58.3458 79.7811 61.0299 80.5343 63.6339C77.9379 64.2748 75.2027 64.8157 72.3684 65.2363C73.3396 63.694 74.3108 62.1115 75.2225 60.4891C76.1342 58.8866 76.9865 57.2641 77.7991 55.6617ZM57.7016 77.0343C55.8583 75.1114 54.015 72.9681 52.1916 70.6245C53.9754 70.7047 55.7988 70.7648 57.6421 70.7648C59.5052 70.7648 61.3484 70.7247 63.1521 70.6245C61.3683 72.9681 59.525 75.1114 57.7016 77.0343ZM42.9554 65.2363C40.141 64.8157 37.4256 64.2949 34.8292 63.6539C35.5625 61.07 36.4743 58.4059 37.5049 55.7418C38.3175 57.3443 39.1698 58.9467 40.1013 60.5492C41.0329 62.1516 41.9842 63.714 42.9554 65.2363ZM57.6025 23.5527C59.4457 25.4756 61.289 27.6189 63.1124 29.9625C61.3286 29.8824 59.5052 29.8223 57.6619 29.8223C55.7988 29.8223 53.9556 29.8623 52.1519 29.9625C53.9357 27.6189 55.779 25.4756 57.6025 23.5527ZM42.9356 35.3507C41.9644 36.8931 40.9932 38.4755 40.0815 40.098C39.1698 41.7004 38.3175 43.3028 37.5049 44.9053C36.4346 42.2212 35.5229 39.5371 34.7697 36.9331C37.3662 36.3122 40.1013 35.7714 42.9356 35.3507ZM24.9984 60.429C17.9821 57.4044 13.4433 53.4383 13.4433 50.2935C13.4433 47.1487 17.9821 43.1626 24.9984 40.1581C26.703 39.4169 28.566 38.7559 30.4886 38.135C31.6183 42.061 33.1048 46.1472 34.9481 50.3336C33.1247 54.4999 31.658 58.5661 30.5481 62.4721C28.5859 61.8512 26.7228 61.1701 24.9984 60.429ZM35.6616 89.0527C32.9661 87.4903 31.7967 81.5412 32.7084 73.8895C32.9265 72.0066 33.2832 70.0236 33.7193 68.0005C37.604 68.962 41.8455 69.7031 46.305 70.1839C48.9807 73.8895 51.7555 77.2547 54.5502 80.1991C48.0888 86.2684 42.0239 89.5935 37.9013 89.5935C37.0094 89.5735 36.2562 89.3932 35.6616 89.0527ZM82.6749 73.7894C83.6064 81.441 82.4568 87.3901 79.7811 88.9725C79.1865 89.3331 78.4135 89.4933 77.5018 89.4933C73.399 89.4933 67.3143 86.1883 60.853 80.1591C63.6278 77.2146 66.4026 73.8695 69.0386 70.1638C73.518 69.6831 77.7595 68.942 81.6442 67.9605C82.1001 69.9836 82.4568 71.9265 82.6749 73.7894ZM90.3056 60.429C88.6011 61.1701 86.738 61.8311 84.8154 62.4521C83.6857 58.5261 82.1992 54.4398 80.3559 50.2535C82.1793 46.0871 83.646 42.0209 84.756 38.1149C86.7181 38.7359 88.5812 39.4169 90.3254 40.1581C97.3417 43.1827 101.88 47.1487 101.88 50.2935C101.861 53.4383 97.3219 57.4244 90.3056 60.429Z" fill="#00ADDC"/>
<path d="M57.6421 59.4475C62.6446 59.4475 66.6999 55.3491 66.6999 50.2935C66.6999 45.2379 62.6446 41.1395 57.6421 41.1395C52.6397 41.1395 48.5844 45.2379 48.5844 50.2935C48.5844 55.3491 52.6397 59.4475 57.6421 59.4475Z" fill="#00ADDC"/>
</svg>
