<svg width="84" height="75" viewBox="0 0 84 75" fill="none" xmlns="http://www.w3.org/2000/svg">
<path d="M83.3423 37.2835C83.3423 31.7521 76.4881 26.5101 65.9795 23.2594C68.4046 12.435 67.3268 3.8231 62.5777 1.06594C61.4831 0.419196 60.2032 0.112844 58.8054 0.112844V3.9082C59.5801 3.9082 60.2032 4.06137 60.7253 4.35071C63.0156 5.67823 64.0092 10.733 63.2345 17.2345C63.0493 18.8343 62.7461 20.5193 62.3756 22.2382C59.0749 21.4213 55.471 20.7916 51.6818 20.3831C49.4083 17.2345 47.0506 14.3752 44.6761 11.8733C50.1662 6.71642 55.3194 3.89118 58.8223 3.89118V0.0958252C54.1911 0.0958252 48.1284 3.43165 41.9984 9.21829C35.8684 3.46569 29.8058 0.163904 25.1746 0.163904V3.95926C28.6606 3.95926 33.8307 6.76748 39.3208 11.8904C36.9631 14.3922 34.6054 17.2345 32.3656 20.3831C28.5596 20.7916 24.9557 21.4213 21.6549 22.2552C21.2675 20.5533 20.9813 18.9024 20.7792 17.3196C19.9877 10.8181 20.9644 5.76333 23.2379 4.41879C23.7431 4.11243 24.3999 3.97628 25.1746 3.97628V0.180923C23.76 0.180923 22.4801 0.487274 21.3686 1.13402C16.6364 3.89118 15.5754 12.486 18.0173 23.2764C7.5424 26.5442 0.721924 31.7692 0.721924 37.2835C0.721924 42.8148 7.57608 48.0569 18.0847 51.3076C15.6596 62.132 16.7374 70.7439 21.4865 73.501C22.5811 74.1478 23.861 74.4541 25.2756 74.4541C29.9068 74.4541 35.9695 71.1183 42.0995 65.3317C48.2295 71.0843 54.2921 74.3861 58.9233 74.3861C60.3379 74.3861 61.6178 74.0797 62.7293 73.433C67.4615 70.6758 68.5225 62.0809 66.0806 51.2906C76.5218 48.0398 83.3423 42.7978 83.3423 37.2835ZM61.4157 25.9315C60.7926 28.127 60.0179 30.3906 59.1422 32.6542C58.4518 31.2926 57.7276 29.9311 56.9361 28.5695C56.1614 27.2079 55.3362 25.8804 54.5111 24.5869C56.9024 24.9443 59.2096 25.3868 61.4157 25.9315ZM53.7027 44.0573C52.3891 46.3549 51.0419 48.5334 49.6441 50.5587C47.1348 50.78 44.5919 50.8991 42.0321 50.8991C39.4892 50.8991 36.9462 50.78 34.4538 50.5757C33.056 48.5504 31.6919 46.3889 30.3784 44.1083C29.0985 41.8788 27.9365 39.6152 26.8755 37.3345C27.9196 35.0539 29.0985 32.7733 30.3615 30.5438C31.6751 28.2461 33.0223 26.0676 34.4201 24.0423C36.9294 23.821 39.4723 23.7019 42.0321 23.7019C44.575 23.7019 47.118 23.821 49.6104 24.0253C51.0082 26.0506 52.3723 28.2121 53.6859 30.4927C54.9657 32.7223 56.1278 34.9859 57.1887 37.2665C56.1278 39.5471 54.9657 41.8277 53.7027 44.0573ZM59.1422 41.8447C60.0516 44.1253 60.8263 46.406 61.4662 48.6185C59.2601 49.1631 56.9361 49.6227 54.5279 49.9801C55.3531 48.6696 56.1783 47.325 56.9529 45.9464C57.7276 44.5849 58.4518 43.2063 59.1422 41.8447ZM42.0658 60.0046C40.4996 58.3707 38.9334 56.5496 37.3841 54.5583C38.8997 54.6264 40.4491 54.6774 42.0153 54.6774C43.5983 54.6774 45.1645 54.6434 46.697 54.5583C45.1813 56.5496 43.6151 58.3707 42.0658 60.0046ZM29.5363 49.9801C27.1449 49.6227 24.8378 49.1801 22.6316 48.6355C23.2547 46.44 24.0294 44.1764 24.9051 41.9128C25.5956 43.2744 26.3198 44.6359 27.1113 45.9975C27.9028 47.3591 28.7111 48.6866 29.5363 49.9801ZM41.9816 14.5624C43.5478 16.1963 45.1139 18.0174 46.6633 20.0087C45.1476 19.9406 43.5983 19.8895 42.0321 19.8895C40.4491 19.8895 38.8829 19.9236 37.3504 20.0087C38.8661 18.0174 40.4322 16.1963 41.9816 14.5624ZM29.5195 24.5869C28.6943 25.8974 27.8691 27.242 27.0944 28.6206C26.3198 29.9821 25.5956 31.3437 24.9051 32.7052C23.9957 30.4246 23.2211 28.144 22.5811 25.9315C24.7873 25.4039 27.1113 24.9443 29.5195 24.5869ZM14.2787 45.8954C8.31707 43.3254 4.46055 39.9556 4.46055 37.2835C4.46055 34.6114 8.31707 31.2245 14.2787 28.6716C15.727 28.0419 17.31 27.4802 18.9435 26.9526C19.9035 30.2885 21.1665 33.7605 22.7327 37.3175C21.1833 40.8576 19.9371 44.3126 18.9941 47.6314C17.3268 47.1038 15.7438 46.5251 14.2787 45.8954ZM23.339 70.2163C21.0486 68.8887 20.055 63.834 20.8297 57.3325C21.0149 55.7327 21.3181 54.0477 21.6886 52.3288C24.9893 53.1457 28.5932 53.7754 32.3824 54.1839C34.6559 57.3325 37.0136 60.1918 39.3881 62.6936C33.8981 67.8506 28.7448 70.6758 25.2419 70.6758C24.4841 70.6588 23.8442 70.5056 23.339 70.2163ZM63.285 57.2474C64.0765 63.7489 63.0998 68.8037 60.8263 70.1482C60.3211 70.4546 59.6643 70.5907 58.8896 70.5907C55.4036 70.5907 50.2335 67.7825 44.7435 62.6596C47.1012 60.1577 49.4588 57.3155 51.6987 54.1669C55.5046 53.7584 59.1085 53.1287 62.4093 52.2947C62.7967 54.0137 63.0998 55.6646 63.285 57.2474ZM69.7687 45.8954C68.3204 46.5251 66.7374 47.0867 65.1038 47.6143C64.1439 44.2785 62.8809 40.8065 61.3147 37.2495C62.864 33.7094 64.1102 30.2544 65.0533 26.9356C66.7205 27.4632 68.3036 28.0419 69.7855 28.6716C75.7471 31.2416 79.6036 34.6114 79.6036 37.2835C79.5868 39.9556 75.7303 43.3424 69.7687 45.8954Z" fill="#00ADDC"/>
<path d="M42.0153 45.0615C46.2658 45.0615 49.7115 41.5792 49.7115 37.2835C49.7115 32.9879 46.2658 29.5056 42.0153 29.5056C37.7648 29.5056 34.3191 32.9879 34.3191 37.2835C34.3191 41.5792 37.7648 45.0615 42.0153 45.0615Z" fill="#00ADDC"/>
</svg>
