<svg width="101" height="101" viewBox="0 0 101 101" fill="none" xmlns="http://www.w3.org/2000/svg">
<path d="M0.972229 50.7339C0.972229 23.1197 23.3581 0.733887 50.9722 0.733887C78.5864 0.733887 100.972 23.1197 100.972 50.7339C100.972 78.3481 78.5864 100.734 50.9722 100.734C23.3581 100.734 0.972229 78.3481 0.972229 50.7339Z" fill="#333333"/>
<path d="M40.9722 80.7339C46.4951 80.7339 50.9722 76.2567 50.9722 70.7339V60.7339H40.9722C35.4494 60.7339 30.9722 65.211 30.9722 70.7339C30.9722 76.2567 35.4494 80.7339 40.9722 80.7339Z" fill="#0ACF83"/>
<path d="M30.9722 50.7339C30.9722 45.211 35.4494 40.7339 40.9722 40.7339H50.9722V60.7339H40.9722C35.4494 60.7339 30.9722 56.2567 30.9722 50.7339Z" fill="#A259FF"/>
<path d="M30.9722 30.7339C30.9722 25.211 35.4494 20.7339 40.9722 20.7339H50.9722V40.7339H40.9722C35.4494 40.7339 30.9722 36.2567 30.9722 30.7339Z" fill="#F24E1E"/>
<path d="M50.9722 20.7339H60.9722C66.4951 20.7339 70.9722 25.211 70.9722 30.7339C70.9722 36.2567 66.4951 40.7339 60.9722 40.7339H50.9722V20.7339Z" fill="#FF7262"/>
<path d="M70.9722 50.7339C70.9722 56.2567 66.4951 60.7339 60.9722 60.7339C55.4494 60.7339 50.9722 56.2567 50.9722 50.7339C50.9722 45.211 55.4494 40.7339 60.9722 40.7339C66.4951 40.7339 70.9722 45.211 70.9722 50.7339Z" fill="#1ABCFE"/>
</svg>
