<svg width="101" height="107" viewBox="0 0 101 107" fill="none" xmlns="http://www.w3.org/2000/svg">
<path d="M94.2115 52.3295C94.2115 46.8659 89.6092 42.4367 83.9318 42.4367C83.5666 42.4367 83.2064 42.4555 82.8514 42.4912L96.9705 2.41602H36.9689L51.0681 42.4567C50.8615 42.4446 50.6537 42.4367 50.4435 42.4367C44.7662 42.4367 40.1639 46.8659 40.1639 52.3295C40.1639 56.7459 43.1713 60.4848 47.3224 61.7569C45.1299 65.4116 42.3713 68.7032 39.2392 71.5467C34.9803 75.4134 30.106 78.3452 24.8346 80.1519C18.558 77.0491 15.5939 70.1479 18.2685 64.0974C18.5705 63.4143 18.8787 62.7215 19.1736 62.0321C23.7205 61.0107 27.1088 57.0876 27.1088 52.4006C27.1088 46.9369 22.5064 42.5078 16.8291 42.5078C11.1514 42.5078 6.54901 46.9369 6.54901 52.4006C6.54901 55.7512 8.28143 58.71 10.9291 60.4998C8.38456 66.0751 4.64471 71.9094 3.47948 78.6715C2.08299 86.7761 3.47518 95.3787 10.7584 100.237C27.7209 111.55 46.1334 93.2231 65.5471 88.6158C72.5826 86.946 80.3056 87.2151 86.5045 83.76C91.1596 81.1654 94.2283 76.8656 95.0994 72.038C95.9596 67.2691 94.7053 62.5208 91.8209 58.6706C93.3127 56.9534 94.2115 54.7429 94.2115 52.3295ZM60.7224 52.3645C60.7224 52.3528 60.7236 52.3412 60.7236 52.3295C60.7236 48.7417 58.7385 45.5997 55.7681 43.8656L66.99 22.0279L78.2314 44.0972C75.4709 45.8708 73.6517 48.8955 73.6517 52.3295C73.6517 52.4017 73.656 52.4727 73.6576 52.5445L60.7224 52.3645Z" fill="#C63D14"/>
<path d="M96.7218 52.3295C96.7218 46.3204 92.223 41.3064 86.2969 40.2354L100.472 0H33.4668L47.6637 40.3169C41.9437 41.5421 37.6531 46.4614 37.6531 52.3295C37.6531 56.7365 40.073 60.6074 43.7 62.7824C41.9554 65.2835 39.8867 67.6371 37.516 69.7893C33.7566 73.2026 29.5679 75.7912 25.0523 77.4942C20.5043 74.7447 18.5816 69.56 20.5785 65.0429L20.7347 64.6895C20.8324 64.4685 20.9304 64.2467 21.0281 64.0249C26.0234 62.3486 29.6191 57.7725 29.6191 52.4006C29.6191 45.6133 23.8812 40.0918 16.8285 40.0918C9.77576 40.0918 4.03826 45.6133 4.03826 52.4006C4.03826 55.8264 5.50115 58.9285 7.85584 61.1622C7.42888 62.0381 6.98006 62.9283 6.51873 63.8403C4.3656 68.0961 1.92537 72.92 1.00232 78.2765C-0.830882 88.9147 2.12576 97.4188 9.32771 102.222C13.698 105.137 18.1359 106.284 22.6019 106.283C31.0117 106.283 39.5183 102.217 47.8386 98.2402C53.8312 95.3761 60.0273 92.4142 66.148 90.9616C68.4254 90.421 70.7687 90.0958 73.2496 89.7515C78.1691 89.0685 83.2566 88.3625 87.7629 85.8509C92.9859 82.9394 96.5617 78.0554 97.5726 72.4515C98.4406 67.6409 97.3957 62.823 94.848 58.7368C96.0359 56.8692 96.7218 54.6753 96.7218 52.3295ZM91.7008 52.3295C91.7008 56.4523 88.2156 59.8066 83.9312 59.8066C79.6476 59.8066 76.1621 56.4523 76.1621 52.3295C76.1621 48.2068 79.6476 44.8528 83.9312 44.8528C88.2156 44.8528 91.7008 48.2068 91.7008 52.3295ZM93.4679 4.83211L80.9504 40.3617C80.4078 40.4869 79.8789 40.6447 79.3652 40.8346L66.9996 16.5583L54.598 40.691C54.0621 40.5132 53.5105 40.3669 52.9449 40.2587L40.4703 4.83211H93.4679ZM50.4433 44.8528C54.7273 44.8528 58.2125 48.2068 58.2125 52.3295C58.2125 56.4523 54.7273 59.8066 50.4433 59.8066C46.1597 59.8066 42.6742 56.4523 42.6742 52.3295C42.6742 48.2068 46.1597 44.8528 50.4433 44.8528ZM16.8285 44.9239C21.1129 44.9239 24.598 48.2779 24.598 52.4006C24.598 56.5233 21.1129 59.8777 16.8285 59.8777C12.5449 59.8777 9.05935 56.5233 9.05935 52.4006C9.05935 48.2779 12.5449 44.9239 16.8285 44.9239ZM92.6254 71.6249C91.8695 75.8157 89.1797 79.4768 85.2461 81.6692C81.5793 83.7131 77.1851 84.3232 72.5328 84.9686C70.0406 85.3145 67.4633 85.6724 64.9457 86.2701C58.2886 87.8497 51.8406 90.9319 45.6051 93.9126C33.1265 99.8773 22.3496 105.028 12.1883 98.2507C4.7449 93.2863 5.08865 84.1006 5.95584 79.067C6.75935 74.4037 8.93201 70.1088 11.0332 65.9552C11.3969 65.2365 11.75 64.5324 12.0965 63.8328C13.1386 64.2339 14.2469 64.5072 15.4019 64.6312C13.2633 71.4245 16.6269 78.8107 23.6867 82.3011L24.6527 82.7789L25.6761 82.4282C31.2574 80.5155 36.4 77.4457 40.9617 73.3041C43.9105 70.6272 46.4445 67.6653 48.5281 64.5004C49.1531 64.591 49.7926 64.6388 50.4433 64.6388C57.4961 64.6388 63.234 59.1172 63.234 52.3295C63.234 48.6793 61.5726 45.3968 58.9414 43.1405L66.9797 27.4976L75.0996 43.4386C72.6633 45.6814 71.141 48.8365 71.141 52.3295C71.141 59.1172 76.8785 64.6388 83.9312 64.6388C86.641 64.6388 89.1547 63.8215 91.225 62.4328C92.6625 65.2647 93.198 68.451 92.6254 71.6249Z" fill="white"/>
</svg>
