<svg width="30" height="31" viewBox="0 0 30 31" fill="none" xmlns="http://www.w3.org/2000/svg">
<path d="M0 15.6487C0 7.36444 6.71573 0.648712 15 0.648712C23.2843 0.648712 30 7.36444 30 15.6487C30 23.933 23.2843 30.6487 15 30.6487C6.71573 30.6487 0 23.933 0 15.6487Z" fill="#0077B5"/>
<path fill-rule="evenodd" clip-rule="evenodd" d="M10.8242 9.9129C10.8242 10.8936 10.086 11.6783 8.90074 11.6783H8.87902C7.73779 11.6783 7 10.8936 7 9.9129C7 8.91146 7.76026 8.14871 8.92315 8.14871C10.086 8.14871 10.8022 8.91146 10.8242 9.9129ZM10.6003 13.0724V23.2859H7.20101V13.0724H10.6003ZM22.8595 23.2859L22.8596 17.4298C22.8596 14.2926 21.1826 12.8325 18.9457 12.8325C17.1409 12.8325 16.3328 13.8239 15.8817 14.5193V13.0726H12.4819C12.5267 14.031 12.4819 23.2862 12.4819 23.2862H15.8817V17.5821C15.8817 17.2769 15.9037 16.9724 15.9936 16.7538C16.2393 16.144 16.7987 15.5126 17.7378 15.5126C18.9684 15.5126 19.4603 16.4492 19.4603 17.8217V23.2859H22.8595Z" fill="white"/>
</svg>
