<svg width="100" height="99" viewBox="0 0 100 99" fill="none" xmlns="http://www.w3.org/2000/svg">
<g clip-path="url(#clip0)">
<path d="M99.4574 63.4353C99.1732 61.1305 98.0053 59.1311 95.977 57.4857C95.9517 57.455 95.9239 57.4265 95.8938 57.4006V57.4006L95.7913 57.3271L95.7585 57.3039L94.6815 56.5305L94.6447 56.5034L94.5074 56.4067C94.4571 56.3773 94.4031 56.3546 94.3469 56.339C90.9399 54.3107 85.2997 52.8895 76.67 55.9349C74.6107 52.4699 74.3768 49.6933 75.7554 45.4394C76.001 44.6988 75.7728 44.2096 75.0381 43.8925C73.5608 43.2641 71.5383 43.5851 70.1035 43.964C69.4345 44.1381 69.0323 44.517 68.9047 45.0913C67.9959 49.3452 65.3546 53.2318 62.8004 56.9829L62.6495 57.2034C61.0756 53.866 61.4024 51.2808 62.4987 48.042C62.7172 47.3962 62.5451 46.9669 61.9399 46.6459C60.2499 45.7739 57.715 46.3733 56.7057 46.6711C55.4256 47.0442 54.0528 50.5034 52.5194 54.6452C52.1327 55.6874 51.8001 56.5788 51.601 56.9945C51.1273 57.9613 50.6748 59.0635 50.1953 60.2333C49.1124 62.8804 47.8923 65.86 46.1482 67.7318C45.514 66.3299 46.5118 64.1198 47.4805 61.9755C48.6271 59.4405 49.7099 57.0448 48.4628 55.5153C48.2655 55.2735 48.0209 55.0746 47.7439 54.931C47.4668 54.7873 47.1633 54.7019 46.8521 54.68C46.446 54.6491 46.0383 54.7154 45.6629 54.8734C45.7925 53.7809 45.7983 52.9185 45.4792 51.8763C45.0229 50.3894 43.8376 49.556 42.2056 49.6005C38.4893 49.7087 35.3453 52.4777 33.3595 54.7825C32.0369 56.3294 29.1055 57.5089 26.5319 58.5433C25.5149 58.9745 24.5481 59.3612 23.7418 59.748C22.4559 58.6613 20.822 57.5649 19.1011 56.4067C14.2671 53.1621 8.78928 49.4825 8.59978 44.4938C8.32908 37.1249 16.7209 31.8984 24.0453 28.1685C29.5967 25.3455 34.4229 23.4737 38.8006 22.4509C44.9494 21.0142 50.143 21.3043 54.2345 23.3094C56.4736 24.4057 57.5216 26.7899 56.8565 29.2417C55.1163 35.6128 47.9059 39.9789 41.7396 41.9434C38.0252 43.1268 34.8638 43.6218 32.0717 43.4594C28.5719 43.2563 25.714 41.5006 24.492 40.7523C24.2962 40.6186 24.0892 40.5022 23.8732 40.4043L23.8172 40.3908C23.7065 40.3632 23.5904 40.3667 23.4816 40.4008C23.3728 40.4349 23.2755 40.4983 23.2004 40.5841C22.949 40.8838 23.0379 41.3576 23.1288 41.5973C24.318 44.7046 26.7736 46.6672 30.4262 47.431C31.6216 47.6703 32.8384 47.7863 34.0575 47.7771C42.6059 47.7771 53.5133 42.8484 57.5197 38.7897C60.2519 36.0247 62.2415 33.1823 63.0653 28.2807C63.9257 23.147 60.4452 19.5795 56.899 17.9359C48.281 13.9585 38.4931 15.5305 31.799 17.5492C23.968 19.9101 15.8662 24.2027 9.57432 29.3306C1.81674 35.6476 -0.986974 41.5122 1.23666 46.7813C3.52023 52.1818 9.08898 55.5598 14.474 58.8276C16.2143 59.8814 17.8694 60.8849 19.3602 61.9213C18.9116 62.1398 18.4534 62.3622 17.9874 62.5845C13.4666 64.7753 8.33875 67.2406 5.49443 71.3147C3.42935 74.2828 3.04264 77.2373 4.34588 80.0971C5.04197 81.6188 6.27947 82.6514 7.99844 83.1657C8.89263 83.4191 9.81868 83.5421 10.748 83.5312C14.0951 83.5312 17.7786 82.1776 19.7837 80.9266C23.326 78.703 25.6212 75.7175 26.6073 72.0534C27.4852 68.7933 27.2744 65.5545 25.9983 62.6638L30.3392 60.475C28.2451 67.4359 29.85 71.5932 31.6134 73.8864C32.2631 74.7314 33.4349 75.2399 34.7439 75.2631C36.053 75.2863 37.2576 74.7933 37.9382 73.9541C39.226 72.3589 40.1773 70.4929 41.0532 68.627C41.0068 69.8452 41.0648 71.0788 41.4805 72.1249C41.8537 73.0666 42.4686 73.6911 43.2614 73.9309C44.1044 74.188 45.0925 73.9715 46.0438 73.3218C50.3306 70.3885 53.2619 63.3483 55.6171 57.6887C55.9516 56.8843 56.2725 56.1109 56.5839 55.3877C57.1665 57.4729 57.9771 59.4876 59.0008 61.3954C59.229 61.8092 59.2097 61.9909 58.9003 62.3312C58.4343 62.8417 57.7846 63.4585 57.0963 64.1121C55.0118 66.0902 52.417 68.5593 52.0689 70.7308C51.9336 71.6009 52.533 72.3937 53.463 72.5735C56.2609 73.1304 59.6312 72.3163 62.4813 70.3982C65.0723 68.658 66.0469 66.2313 65.3817 63.2072C64.7378 60.2952 66.2074 56.6793 69.7497 52.4525C70.3298 54.8753 71.1032 56.834 72.1706 58.5491L72.1416 58.5723C69.5621 60.825 66.0275 63.9091 66.5767 67.6506C66.6227 68.0064 66.7425 68.3487 66.9282 68.6557C67.114 68.9626 67.3617 69.2275 67.6556 69.4333C67.9697 69.6454 68.3241 69.7902 68.6968 69.8587C69.0695 69.9273 69.4523 69.9181 69.8212 69.8316C73.1992 69.122 75.7419 67.6931 77.5904 65.4675C79.4389 63.242 78.7641 60.7747 78.1415 58.8604C82.9755 57.5495 87.2797 57.5823 91.3093 58.9571C93.5716 59.7306 95.1939 61.0009 96.1297 62.7547C97.3073 64.9609 96.6711 66.997 94.3334 68.4878C93.616 68.9461 93.2699 69.2264 93.2487 69.5803C93.2439 69.6624 93.259 69.7444 93.2927 69.8195C93.3263 69.8945 93.3776 69.9604 93.442 70.0115C93.7127 70.2338 94.548 70.6206 96.4372 69.4314C98.1774 68.3389 99.1983 66.852 99.4594 64.9841C99.5119 64.4692 99.5112 63.9502 99.4574 63.4353V63.4353ZM22.1659 68.2809L22.1465 68.5284C21.8449 71.3592 20.4063 73.8265 17.8636 75.8761C16.2665 77.1638 14.5321 77.9547 12.9813 78.1055C11.8985 78.2099 11.1115 78.063 10.6436 77.6666C10.2936 77.3707 10.1061 76.9279 10.0635 76.3131C9.74641 71.3863 17.473 66.4904 21.8217 64.8797C22.132 65.9851 22.2485 67.1358 22.1659 68.2809ZM41.9562 54.3861C41.2408 58.4641 39.1544 66.1617 35.8751 69.1491C35.7184 69.2922 35.587 69.3424 35.527 69.3289C35.4671 69.3154 35.4207 69.2438 35.3723 69.1356C34.2779 66.5987 34.682 62.3138 36.3391 58.9475C37.6134 56.3526 39.4329 54.6336 41.467 54.1135C41.5514 54.0902 41.6385 54.0778 41.7261 54.0767C41.7946 54.0719 41.8627 54.0903 41.9195 54.1289C41.9434 54.1668 41.9591 54.2093 41.9654 54.2536C41.9717 54.2979 41.9686 54.3431 41.9562 54.3861ZM58.0998 69.2516C57.483 69.8955 56.638 69.8084 56.8372 69.5725L59.9773 66.239C59.724 67.3857 58.9757 68.335 58.0998 69.2516ZM71.1264 66.3686C70.8278 66.5157 70.5047 66.6068 70.1731 66.6374C70.0842 64.8836 71.7838 62.9094 73.4603 61.5926C73.9108 63.4218 72.9885 65.3554 71.1264 66.3686V66.3686Z" fill="#CC6699"/>
</g>
<defs>
<clipPath id="clip0">
<rect width="99" height="99" fill="white" transform="translate(0.5)"/>
</clipPath>
</defs>
</svg>
