<svg width="30" height="31" viewBox="0 0 30 31" fill="none" xmlns="http://www.w3.org/2000/svg">
<path d="M0 15.6487C0 7.36444 6.71573 0.648712 15 0.648712C23.2843 0.648712 30 7.36444 30 15.6487C30 23.933 23.2843 30.6487 15 30.6487C6.71573 30.6487 0 23.933 0 15.6487Z" fill="#55ACEE"/>
<path d="M14.5508 12.8409L14.5822 13.3599L14.0576 13.2964C12.148 13.0528 10.4798 12.2265 9.06334 10.8389L8.37085 10.1504L8.19248 10.6588C7.81477 11.7922 8.05609 12.9892 8.843 13.7942C9.26269 14.2391 9.16826 14.3027 8.4443 14.0379C8.19248 13.9531 7.97215 13.8896 7.95116 13.9213C7.87772 13.9955 8.12953 14.9594 8.32888 15.3407C8.60168 15.8704 9.15777 16.3894 9.76631 16.6966L10.2804 16.9402L9.67188 16.9508C9.08432 16.9508 9.06334 16.9614 9.12629 17.1838C9.33613 17.8724 10.165 18.6032 11.0883 18.921L11.7388 19.1435L11.1723 19.4824C10.3329 19.9697 9.34663 20.2451 8.36036 20.2663C7.88821 20.2769 7.5 20.3192 7.5 20.351C7.5 20.4569 8.78005 21.0501 9.52499 21.2831C11.7598 21.9717 14.4144 21.6751 16.4079 20.4993C17.8243 19.6625 19.2408 17.9995 19.9018 16.3894C20.2585 15.5314 20.6152 13.9637 20.6152 13.2116C20.6152 12.7244 20.6467 12.6608 21.2343 12.0782C21.5805 11.7393 21.9058 11.3685 21.9687 11.2626C22.0737 11.0614 22.0632 11.0614 21.5281 11.2414C20.6362 11.5592 20.5103 11.5168 20.951 11.0402C21.2762 10.7012 21.6645 10.0868 21.6645 9.90677C21.6645 9.87499 21.5071 9.92796 21.3287 10.0233C21.1398 10.1292 20.7202 10.2881 20.4054 10.3834L19.8388 10.5635L19.3247 10.214C19.0414 10.0233 18.6427 9.81144 18.4329 9.74788C17.8978 9.59959 17.0794 9.62077 16.5967 9.79025C15.2852 10.2669 14.4563 11.4956 14.5508 12.8409Z" fill="white"/>
</svg>
