<svg width="101" height="101" viewBox="0 0 101 101" fill="none" xmlns="http://www.w3.org/2000/svg">
<path d="M88.5613 75.663L52.4613 95.9911V80.1536L74.9551 67.8317L88.5613 75.663ZM91.0363 73.4348V30.9067L77.8207 38.5067V65.8348L91.0363 73.4348ZM13.1863 75.663L49.2863 95.9911V80.1536L26.7926 67.8317L13.1863 75.663ZM10.7113 73.4348V30.9067L23.9269 38.5067V65.8348L10.7113 73.4348ZM12.2582 28.1536L49.2863 7.30359V22.6192L25.3926 35.7067L12.2582 28.1536ZM89.4894 28.1536L52.4613 7.30359V22.6192L76.3551 35.7067L89.4894 28.1536ZM49.2863 76.5598L27.1019 64.4005V40.3286L49.2863 53.088V76.5598ZM52.4613 76.5598L74.6457 64.4005V40.3286L52.4613 53.088V76.5598ZM28.5988 37.5473L50.8801 25.3567L73.1613 37.5473L50.8801 50.3567L28.5988 37.5473Z" fill="#00B0FF"/>
</svg>
